<svg width="50" height="50" viewBox="0 0 50 50" fill="none" xmlns="http://www.w3.org/2000/svg">
    <g id="codeSvg">
            <polygon fill="#e7a42b" points="8,5 42,5 38,39 25,43 11,39"></polygon><polygon fill="#f2bf22" points="38.63,8 35.25,36.71 25,39.86 25,8"></polygon><polygon fill="#faf9f8" points="25,21 26,23 25,25 15.79,25 16.64,12 25,12 26,14 25,16 21.03,16 20.7,21"></polygon><polygon fill="#ebebeb" points="24.9,32.57 25,32.54 26,35 25,36.72 24.94,36.74 16.61,34.36 16.05,28 20.07,28 20.35,31.27"></polygon><polygon fill="#fff" points="34.07,21 32.5,34.42 25,36.72 25,32.54 28.83,31.36 29.57,25 25,25 25,21"></polygon><polygon fill="#fff" points="34.92,18 30.93,18 30.67,16 25,16 25,12 34.13,12 34.3,13.26"></polygon>
 </g>
    <g id="css">
            <linearGradient id="TQDriqswrKwPOniLrPT12a_7gdY5qNXaKC0_gr1" x1="16.33" x2="32.293" y1="-2.748" y2="41.109" gradientUnits="userSpaceOnUse"><stop offset="0" stop-color="#2aa4f4"></stop><stop offset="1" stop-color="#007ad9"></stop></linearGradient><path fill="url(#TQDriqswrKwPOniLrPT12a_7gdY5qNXaKC0_gr1)" d="M7.192,7.176l2.627,29.77c0.109,1.237,0.97,2.28,2.164,2.621l10.643,3.041	c0.898,0.257,1.849,0.257,2.747,0l10.643-3.041c1.194-0.341,2.055-1.383,2.164-2.621l2.627-29.77C40.911,6.006,39.99,5,38.816,5	H9.184C8.01,5,7.089,6.006,7.192,7.176z"></path><path fill="#35c1f1" d="M24,8v31.9l9.876-2.822c0.797-0.228,1.371-0.924,1.443-1.749l2.286-26.242	C37.656,8.502,37.196,8,36.609,8H24z"></path><path fill="#fff" d="M33.1,13H24v4h4.9l-0.3,4H24v4h4.4l-0.3,4.5L24,30.9v4.2l7.9-2.6L32.6,21l0,0L33.1,13z"></path><path fill="#d6e0e9" d="M24,13v4h-8.9l-0.3-4H24z M19.4,21l0.2,4H24v-4H19.4z M19.8,27h-4l0.3,5.5l7.9,2.6v-4.2l-4.1-1.4	L19.8,27z"></path><path d="M33.1,13l-0.5,8l-0.7,11.5L24,35.1l-7.9-2.6L15.8,27h4l0.1,2.5l4.1,1.4l4.1-1.4l0.3-4.5H24h-4.4l-0.2-4H24h4.6l0.3-4H24 h-8.9l-0.3-4H24H33.1 M34.164,12H33.1H24h-9.2h-1.078l0.081,1.075l0.3,4L14.172,18H15.1H24h3.822l-0.15,2H24h-4.6h-1.051 l0.052,1.05l0.2,4L18.649,26H15.8h-1.056l0.058,1.054l0.3,5.5l0.037,0.682l0.649,0.214l7.9,2.6L24,36.153l0.313-0.103l7.9-2.6 l0.644-0.212l0.041-0.677l0.7-11.5l0.5-7.998L34.164,12L34.164,12z M20.761,26H24h3.331l-0.185,2.769L24,29.843l-3.128-1.068 l-0.073-1.815L20.761,26L20.761,26z" opacity=".05"></path><path d="M33.1,13l-0.5,8l-0.7,11.5L24,35.1l-7.9-2.6L15.8,27h4l0.1,2.5l4.1,1.4l4.1-1.4l0.3-4.5H24h-4.4l-0.2-4H24h4.6l0.3-4H24 h-8.9l-0.3-4H24H33.1 M33.632,12.5H33.1H24h-9.2h-0.539l0.04,0.537l0.3,4l0.035,0.463H15.1H24h4.361l-0.225,3H24h-4.6h-0.526 l0.026,0.525l0.2,4l0.024,0.475H19.6H24h3.866l-0.242,3.634L24,30.372l-3.614-1.234L20.3,26.98L20.28,26.5H19.8h-4h-0.528 l0.029,0.527l0.3,5.5l0.019,0.341l0.324,0.107l7.9,2.6L24,35.626l0.156-0.051l7.9-2.6l0.322-0.106l0.021-0.339l0.7-11.5l0.5-7.999 L33.632,12.5L33.632,12.5z" opacity=".07"></path>
</g>
    <g id="react">
        <svg xmlns="http://www.w3.org/2000/svg" x="0px" y="0px" width="50" height="50" viewBox="0 0 80 80">
            <path fill="#8bb7f0" d="M46.5,40c0,3.593-2.907,6.5-6.5,6.5s-6.5-2.907-6.5-6.5s2.907-6.5,6.5-6.5S46.5,36.407,46.5,40z"></path><path fill="#4e7ab5" d="M40,47c-3.859,0-7-3.14-7-7s3.141-7,7-7s7,3.14,7,7S43.859,47,40,47z M40,34c-3.309,0-6,2.691-6,6 s2.691,6,6,6s6-2.691,6-6S43.309,34,40,34z"></path><g><path fill="#8bb7f0" d="M24.474,75.503c-1.711,0-3.269-0.392-4.632-1.164c-2.28-1.293-3.856-3.521-4.686-6.62 c-0.965-3.607-0.85-8.398,0.332-13.878C5.956,50.562,0.5,45.531,0.5,40c0-5.532,5.455-10.562,14.987-13.84 c-1.182-5.481-1.298-10.272-0.333-13.879c0.83-3.1,2.406-5.328,4.685-6.62c1.362-0.772,2.921-1.164,4.632-1.164 c4.388,0,9.891,2.73,15.531,7.698c5.64-4.963,11.141-7.691,15.524-7.691c1.711,0,3.269,0.392,4.632,1.164 c2.277,1.291,3.854,3.515,4.684,6.611c0.966,3.606,0.85,8.398-0.333,13.88C74.043,29.437,79.5,34.468,79.5,40 s-5.457,10.563-14.991,13.842c1.182,5.481,1.298,10.272,0.332,13.878c-0.83,3.097-2.405,5.321-4.68,6.612 c-1.364,0.772-2.923,1.164-4.633,1.164c-4.386,0-9.889-2.728-15.527-7.689C34.361,72.774,28.859,75.503,24.474,75.503z M19.337,55.006c-0.991,4.717-1.102,8.747-0.316,11.679c0.542,2.026,1.481,3.431,2.794,4.175c0.753,0.427,1.648,0.644,2.659,0.644 c3.394,0,7.862-2.282,12.621-6.437c-2.385-2.402-4.713-5.121-6.928-8.091C26.336,56.56,22.696,55.898,19.337,55.006z M42.906,65.065c4.758,4.151,9.227,6.431,12.621,6.432c1.011,0,1.906-0.217,2.661-0.644c1.309-0.742,2.246-2.144,2.787-4.167 c0.786-2.934,0.676-6.963-0.315-11.679c-3.362,0.892-7.003,1.554-10.833,1.97C47.613,59.947,45.288,62.665,42.906,65.065z M35.566,57.393c1.452,1.776,2.938,3.433,4.434,4.94c1.492-1.506,2.979-3.163,4.43-4.94C42.939,57.464,41.454,57.5,40,57.5 C38.545,57.5,37.059,57.464,35.566,57.393z M32.349,53.179C34.844,53.392,37.417,53.5,40,53.5c2.585,0,5.155-0.108,7.646-0.32 c1.486-2.084,2.903-4.268,4.214-6.495c1.268-2.155,2.461-4.404,3.547-6.686c-1.083-2.276-2.275-4.524-3.546-6.684 c-1.308-2.222-2.725-4.406-4.215-6.495C45.157,26.608,42.587,26.5,40,26.5c-2.588,0-5.159,0.108-7.647,0.321 c-1.49,2.086-2.909,4.27-4.219,6.495c-1.27,2.159-2.462,4.407-3.546,6.686c1.082,2.274,2.274,4.522,3.545,6.684 C29.437,48.901,30.854,51.084,32.349,53.179z M57.491,44.779c-0.706,1.346-1.438,2.666-2.185,3.934 c-0.753,1.282-1.554,2.568-2.386,3.836c2.374-0.366,4.645-0.835,6.771-1.4C59.101,49.1,58.362,46.963,57.491,44.779z M20.304,51.148c2.127,0.564,4.397,1.034,6.768,1.4c-0.837-1.276-1.638-2.563-2.386-3.835c-0.745-1.267-1.478-2.585-2.183-3.931 C21.636,46.956,20.898,49.091,20.304,51.148z M59.816,40c1.528,3.391,2.773,6.743,3.708,9.977C70.926,47.373,75.5,43.574,75.5,40 s-4.574-7.373-11.976-9.977C62.591,33.257,61.345,36.609,59.816,40z M16.472,30.025C9.073,32.628,4.5,36.427,4.5,40 c0,3.574,4.573,7.373,11.974,9.976c0.934-3.235,2.179-6.587,3.705-9.974C18.652,36.614,17.407,33.262,16.472,30.025z M20.303,28.852c0.594,2.054,1.332,4.19,2.2,6.368c0.704-1.342,1.436-2.661,2.184-3.932c0.752-1.279,1.553-2.565,2.388-3.836 C24.701,27.817,22.431,28.287,20.303,28.852z M52.922,27.451c0.837,1.277,1.638,2.563,2.386,3.837 c0.746,1.267,1.479,2.586,2.185,3.932c0.869-2.177,1.607-4.313,2.201-6.369C57.564,28.286,55.294,27.816,52.922,27.451z M24.471,8.497c-1.011,0-1.905,0.216-2.657,0.644c-1.312,0.744-2.252,2.149-2.795,4.175c-0.785,2.935-0.675,6.964,0.317,11.679 c3.36-0.892,7.002-1.555,10.834-1.971c2.217-2.971,4.545-5.688,6.927-8.088C32.337,10.779,27.866,8.497,24.471,8.497z M49.828,23.023c3.83,0.416,7.471,1.078,10.833,1.97c0.992-4.716,1.103-8.746,0.316-11.68c-0.542-2.022-1.48-3.424-2.79-4.166 c-0.754-0.427-1.649-0.644-2.661-0.644c-3.393,0-7.86,2.281-12.619,6.433C45.287,17.335,47.613,20.053,49.828,23.023z M40,22.5 c1.454,0,2.939,0.036,4.431,0.107c-1.45-1.774-2.936-3.43-4.429-4.938c-1.497,1.51-2.982,3.166-4.432,4.938 C37.061,22.536,38.546,22.5,40,22.5z"></path><path fill="#4e7ab5" d="M24.471,4.997c4.494,0,9.996,2.91,15.532,7.867c5.535-4.953,11.034-7.86,15.524-7.86 c1.623,0,3.099,0.37,4.386,1.099c2.156,1.222,3.652,3.343,4.446,6.306c1.077,3.917,0.851,8.74-0.434,14.08 C73.147,29.57,79,34.431,79,40s-5.853,10.43-15.076,13.512c1.341,5.773,1.566,10.726,0.434,14.079 c-0.794,2.962-2.289,5.084-4.443,6.306C58.626,74.627,57.455,75,55.833,75c-0.001,0-0.416,0-0.417,0 c-4.492,0-9.882-2.91-15.416-7.861c-5.535,4.956-11.035,7.864-15.527,7.864c-1.623,0-3.099-0.37-4.386-1.099 c-2.158-1.225-3.655-3.349-4.448-6.314c-1.19-3.717-0.95-8.603,0.434-14.079C6.852,50.429,1,45.569,1,40 c0-5.568,5.852-10.429,15.072-13.511C15.385,23.43,14.946,20.59,14.931,18c-0.012-2.046,0.267-3.949,0.707-5.59 c0.794-2.966,2.29-5.09,4.448-6.314C21.372,5.366,22.848,4.997,24.471,4.997 M18.958,25.614c3.477-0.955,7.338-1.677,11.483-2.117 c2.382-3.21,4.875-6.096,7.386-8.584c-4.872-4.346-9.616-6.917-13.356-6.917c-1.099,0-2.075,0.238-2.904,0.709 c-1.433,0.813-2.452,2.32-3.031,4.481C17.678,16.388,17.873,20.716,18.958,25.614 M61.039,25.613 c1.085-4.898,1.28-9.227,0.422-12.429c-0.578-2.157-1.597-3.661-3.027-4.472c-0.83-0.471-1.809-0.709-2.907-0.709 c-3.737,0-8.478,2.568-13.349,6.91c2.51,2.488,5,5.374,7.38,8.583C53.701,23.936,57.562,24.658,61.039,25.613 M34.477,23.166 c1.802-0.107,3.609-0.2,5.488-0.2c1.879,0,3.755,0.094,5.557,0.2c-1.808-2.279-3.664-4.361-5.521-6.204 C38.144,18.805,36.287,20.887,34.477,23.166 M40,54c2.761,0,5.404-0.121,7.918-0.342c1.519-2.117,2.988-4.365,4.372-6.719 c1.353-2.299,2.577-4.626,3.67-6.939c-1.093-2.313-2.317-4.639-3.669-6.937c-1.385-2.355-2.853-4.602-4.373-6.719 C45.405,26.121,42.762,26,40,26s-5.406,0.121-7.92,0.343c-1.521,2.117-2.991,4.365-4.376,6.719 c-1.352,2.299-2.576,4.626-3.669,6.939c1.093,2.313,2.316,4.639,3.668,6.937c1.385,2.354,2.854,4.602,4.374,6.719 C34.592,53.879,37.237,54,40,54 M57.546,36.413c1.125-2.709,2.056-5.369,2.766-7.913c-2.553-0.702-5.373-1.282-8.428-1.707 c1.028,1.527,2.029,3.11,2.992,4.748C55.83,33.16,56.717,34.788,57.546,36.413 M22.449,36.414c0.828-1.625,1.716-3.253,2.668-4.873 c0.964-1.638,1.966-3.22,2.995-4.747c-3.055,0.424-5.875,1.005-8.428,1.707C20.394,31.045,21.325,33.704,22.449,36.414 M63.188,50.622C71.264,47.886,76,43.866,76,40s-4.736-7.886-12.812-10.622c-0.953,3.405-2.269,6.983-3.92,10.621 C60.919,43.638,62.235,47.216,63.188,50.622 M16.81,50.621c0.952-3.404,2.267-6.982,3.918-10.619 c-1.651-3.638-2.967-7.217-3.919-10.622C8.734,32.116,4,36.135,4,40C4,43.866,8.735,47.885,16.81,50.621 M51.884,53.207 c3.055-0.424,5.875-1.004,8.428-1.707c-0.711-2.544-1.642-5.204-2.766-7.914c-0.829,1.625-1.717,3.253-2.67,4.873 C53.913,50.097,52.912,51.68,51.884,53.207 M28.109,53.206c-1.028-1.527-2.029-3.109-2.993-4.746 c-0.952-1.619-1.839-3.246-2.667-4.87c-1.124,2.708-2.054,5.367-2.764,7.91C22.237,52.201,25.056,52.781,28.109,53.206 M24.474,72.003c3.739,0,8.481-2.57,13.352-6.914c-2.513-2.489-5.005-5.376-7.388-8.587c-4.143-0.439-8.002-1.161-11.478-2.116 c-1.084,4.898-1.279,9.226-0.422,12.428c0.578,2.16,1.598,3.667,3.03,4.48C22.396,71.765,23.375,72.003,24.474,72.003 M55.527,71.997L55.527,71.997c1.099,0,2.076-0.238,2.907-0.709c1.43-0.811,2.447-2.315,3.024-4.473 c0.858-3.203,0.663-7.531-0.421-12.428c-3.477,0.955-7.337,1.677-11.481,2.116c-2.38,3.21-4.871,6.096-7.381,8.585 C47.046,69.428,51.788,71.996,55.527,71.997 M40,63.04c1.857-1.844,3.713-3.927,5.522-6.206c-1.801,0.107-3.559,0.333-5.439,0.333 c-1.881,0-3.807-0.226-5.609-0.333C36.284,59.114,38.142,61.197,40,63.04 M24.116,4.072c-1.799,0-3.085,0.338-4.523,1.153 c-2.399,1.361-4.055,3.691-4.921,6.926c-0.96,3.587-0.877,8.302,0.236,13.681C5.419,29.189,0,34.325,0,40 c0,5.676,5.42,10.811,14.909,14.168c-1.113,5.379-1.196,10.094-0.235,13.681c0.865,3.233,2.52,5.563,4.921,6.926 c1.44,0.816,3.17,1.163,4.968,1.163c4.487,0,9.753-2.535,15.438-7.466c5.684,4.926,11.039,7.524,15.525,7.525 c1.799,0,3.441-0.413,4.881-1.229c2.397-1.359,4.051-3.686,4.916-6.917c0.961-3.588,0.878-8.303-0.235-13.681 C74.579,50.812,80,45.676,80,40s-5.42-10.812-14.911-14.169c1.114-5.38,1.196-10.095,0.235-13.682 c-0.866-3.231-2.521-5.558-4.919-6.917c-1.439-0.815-3.081-1.229-4.879-1.229c-4.485,0-9.839,2.599-15.524,7.527 c-5.686-4.932-11.066-7.461-15.554-7.461L24.116,4.072z M19.72,24.377c-0.462-2.324-0.772-4.502-0.789-6.412 c-0.015-1.72,0.221-3.217,0.57-4.521c0.507-1.892,1.368-3.194,2.559-3.87c0.676-0.384,1.5-0.644,2.423-0.644 c3.181,0,7.367,2.178,11.883,6.034c-2.221,2.273-4.392,4.819-6.466,7.585C26.315,22.949,22.897,23.562,19.72,24.377L19.72,24.377z M43.638,14.966c4.515-3.853,8.711-5.963,11.888-5.963c0.924,0,1.737,0.195,2.414,0.579c1.189,0.674,2.049,1.973,2.555,3.861 c0.874,2.818,0.761,6.564-0.218,10.933c-3.177-0.814-6.594-1.428-10.178-1.826C48.026,19.785,45.857,17.239,43.638,14.966 L43.638,14.966z M36.673,22.06c1.096-1.3,2.209-2.53,3.328-3.678c1.119,1.148,2.231,2.378,3.326,3.678 C42.208,22.02,41.095,22,40,22S37.793,22.02,36.673,22.06L36.673,22.06z M32.625,27.3c2.405-0.199,4.883-0.341,7.375-0.341 c2.491,0,4.969,0.142,7.373,0.341c1.432,2.019,2.796,4.126,4.056,6.269c1.222,2.078,2.373,4.239,3.423,6.43 c-1.051,2.192-2.202,4.354-3.424,6.432c-1.261,2.144-2.624,4.25-4.056,6.269c-2.403,0.199-4.881,0.466-7.372,0.466 c-2.493,0-4.972-0.268-7.378-0.467c-1.433-2.018-2.797-4.125-4.058-6.269c-1.222-2.077-2.372-4.238-3.422-6.43 c1.05-2.192,2.201-4.354,3.423-6.432C29.827,31.425,31.192,29.318,32.625,27.3L32.625,27.3z M57.422,34.024 c-0.549-1.018-1.112-2.018-1.683-2.99c-0.57-0.969-1.167-1.942-1.785-2.909c1.774,0.302,3.485,0.663,5.114,1.08 C58.601,30.771,58.05,32.383,57.422,34.024L57.422,34.024z M20.928,29.205c1.629-0.417,3.34-0.778,5.114-1.08 c-0.619,0.967-1.216,1.94-1.786,2.908c-0.571,0.972-1.134,1.972-1.683,2.99C21.945,32.384,21.395,30.772,20.928,29.205 L20.928,29.205z M60.365,39.999c1.415-3.162,2.587-6.292,3.49-9.326C70.758,33.192,75,36.721,75,40s-4.242,6.808-11.145,9.327 C62.951,46.292,61.78,43.161,60.365,39.999L60.365,39.999z M16.142,49.326C9.241,46.807,5,43.278,5,40s4.241-6.807,11.141-9.326 c0.903,3.035,2.074,6.165,3.489,9.327C18.216,43.162,17.045,46.292,16.142,49.326L16.142,49.326z M53.953,51.876 c0.618-0.968,1.216-1.941,1.785-2.909c0.572-0.972,1.135-1.973,1.684-2.991c0.628,1.641,1.178,3.254,1.646,4.821 C57.438,51.212,55.727,51.574,53.953,51.876L53.953,51.876z M20.929,50.795c0.467-1.566,1.017-3.177,1.644-4.816 c0.548,1.017,1.111,2.017,1.682,2.988c0.569,0.968,1.166,1.94,1.785,2.908C24.267,51.572,22.557,51.211,20.929,50.795 L20.929,50.795z M24.474,71.003c-0.924,0-1.736-0.195-2.413-0.579c-1.19-0.676-2.051-1.977-2.557-3.869 c-0.831-2.845-0.737-6.592,0.218-10.933c3.176,0.814,6.592,1.428,10.175,1.826c2.075,2.766,4.246,5.313,6.468,7.588 C31.85,68.893,27.653,71.004,24.474,71.003L24.474,71.003L24.474,71.003z M50.098,57.45c3.584-0.399,7.001-1.012,10.178-1.826 c1.105,4.74,1.192,8.518,0.217,10.932c-0.505,1.889-1.364,3.188-2.552,3.861c-0.678,0.384-1.49,0.579-2.413,0.579v1l-0.001-1 c-3.18,0-7.377-2.11-11.891-5.961C45.856,62.762,48.025,60.216,50.098,57.45L50.098,57.45z M40,61.62 c-1.12-1.148-2.234-2.379-3.33-3.68C37.79,57.98,38.904,58,40,58c1.095,0,2.208-0.02,3.327-0.06 C42.232,59.241,41.119,60.472,40,61.62L40,61.62z"></path></g>
        </svg>
    </g>
    <g id="ts">
            <rect width="40" height="40" x="6" y="6" fill="#1976d2"></rect><polygon fill="#fff" points="27.49,22 14.227,22 14.227,25.264 18.984,25.264 18.984,40 22.753,40 22.753,25.264 27.49,25.264"></polygon><path fill="#fff" d="M39.194,26.084c0,0-1.787-1.192-3.807-1.192s-2.747,0.96-2.747,1.986 c0,2.648,7.381,2.383,7.381,7.712c0,8.209-11.254,4.568-11.254,4.568V35.22c0,0,2.152,1.622,4.733,1.622s2.483-1.688,2.483-1.92 c0-2.449-7.315-2.449-7.315-7.878c0-7.381,10.658-4.469,10.658-4.469L39.194,26.084z"></path>
</g>
    <g id="styledComponents">
        <svg width="50" height="50" viewBox="0 0 120 120" fill="none" xmlns="http://www.w3.org/2000/svg">
            <g clip-path="url(#clip0_1_1803)">
                <path d="M68.7673 118.279C68.9473 117.872 69.4015 117.589 69.7315 117.246C74.7666 111.967 79.8446 106.735 84.8111 101.391C86.3653 99.9558 87.5662 98.1804 88.32 96.2036C89.0739 94.2269 89.3601 92.1026 89.1563 89.9968C89.0004 89.0951 88.7958 88.2025 88.5435 87.3229C87.1894 88.6084 85.9296 89.7783 84.6611 90.9567C82.6899 92.7908 80.7273 94.6334 78.739 96.4461C77.5665 97.6415 76.059 98.4531 74.4156 98.7737C72.7721 99.0943 71.0701 98.9087 69.5344 98.2416C67.9797 97.6705 66.627 96.6553 65.6443 95.3221C64.6616 93.9889 64.092 92.3965 64.0064 90.7425C63.9604 90.5297 63.8988 90.3206 63.8222 90.1168C62.3095 91.4024 60.8611 92.5851 59.4256 93.8021L29.5877 119.085C29.382 119.261 29.1591 119.479 28.9663 119.65H68.7459L68.6859 119.612C68.4716 119.462 68.583 118.673 68.7673 118.279Z" fill="#FFCEBF" />
                <path d="M27.1436 118.279C27.4974 117.818 27.9245 117.418 28.4077 117.096L69.7 82.0642C72.5168 79.6731 75.3207 77.2691 78.1118 74.8522C78.4567 74.6118 78.727 74.2791 78.8918 73.8924C79.5594 70.9831 79.654 67.9717 79.1703 65.0263C78.7418 65.3262 78.5104 65.4548 78.3132 65.6648C74.9322 68.6901 71.5683 71.7412 68.1702 74.7494C67.0445 75.8824 65.5885 76.6292 64.0116 76.8825C62.4346 77.1359 60.818 76.8826 59.3941 76.1592C57.9414 75.4734 56.7256 74.3709 55.9014 72.992C55.0773 71.6131 54.682 70.0201 54.766 68.4159V67.0275C54.1447 67.4817 53.6905 67.7859 53.2662 68.1287C36.7396 81.3615 20.2159 94.5842 3.69496 107.797C2.94933 108.393 2.05801 109.721 1.08098 108.431C0.103957 107.141 1.59092 106.61 2.34083 106.01C19.953 91.8774 37.5738 77.7576 55.2031 63.6507C58.0742 61.3496 58.2628 60.3854 56.3944 56.7301L55.2803 57.7757C52.2249 60.6168 49.1353 63.4193 46.1271 66.3075C44.8931 67.4978 43.3476 68.3148 41.6691 68.6641C39.9906 69.0135 38.2476 68.8809 36.6412 68.2818C35.0348 67.6827 33.6306 66.6415 32.5908 65.2784C31.5509 63.9153 30.9178 62.2858 30.7646 60.5782C30.1947 61.0067 29.7019 61.3196 29.2348 61.6838L3.09503 81.9443C2.64419 82.3864 2.13005 82.7591 1.5695 83.0498C1.14643 83.1777 0.692134 83.155 0.283936 82.9856V119.671H27.0922C26.9925 119.451 26.9453 119.21 26.9542 118.969C26.9631 118.727 27.028 118.491 27.1436 118.279Z" fill="#FFCEBF" />
                <path d="M99.5652 1.82096C98.8367 4.20782 98.1297 6.59897 97.4912 9.01154C96.9014 10.7164 96.97 12.5802 97.6836 14.2371C98.3971 15.8941 99.704 17.2246 101.348 17.9676C106.376 20.6107 112.042 21.798 117.709 21.3958V2.22806C117.646 1.80781 117.669 1.37914 117.777 0.968207C117.897 0.73576 118.049 0.520916 118.227 0.329712H99.5481C99.8352 0.663958 99.7366 1.25103 99.5652 1.82096Z" fill="#FF6196" />
                <path d="M62.051 42.9976C61.9621 45.137 61.2137 47.1966 59.9084 48.894C55.2418 54.9179 49.8828 60.3719 43.9417 65.1435C42.9836 66.0304 41.7693 66.591 40.4728 66.745C39.1764 66.8989 37.8646 66.6383 36.7254 66.0005C35.5916 65.5161 34.6356 64.6925 33.9887 63.6428C33.3419 62.5932 33.036 61.369 33.113 60.1384C33.2502 58.627 33.8777 57.202 34.8999 56.0803C41.5434 49.7455 48.7414 44.019 56.4074 38.9695C56.9094 38.5758 57.5226 38.3499 58.1601 38.3237C58.7976 38.2976 59.4272 38.4725 59.9598 38.8238C60.6598 39.2585 61.2258 39.8786 61.5949 40.6153C61.9641 41.352 62.1219 42.1766 62.051 42.9976Z" fill="#FF87AF" />
                <path d="M56.9126 68.97C56.8131 68.0228 56.9347 67.0654 57.2678 66.1731C57.6009 65.2809 58.1365 64.478 58.8324 63.8277C65.3372 57.8281 72.3163 52.3638 79.7013 47.4883C79.9241 47.3468 80.1298 47.2054 80.3741 47.0597C81.0192 46.594 81.8008 46.356 82.5959 46.3832C83.3911 46.4103 84.1546 46.7011 84.7664 47.2097C85.3584 47.7112 85.7772 48.3865 85.9634 49.1396C86.1496 49.8928 86.0936 50.6854 85.8034 51.4049C84.8691 54.5168 83.1448 57.3337 80.7983 59.5811C76.0329 64.2758 71.1753 68.8762 66.2286 73.3795C65.4836 74.1456 64.5051 74.6422 63.4469 74.7911C62.3888 74.9401 61.3111 74.7329 60.3836 74.2022C59.409 73.6958 58.5791 72.9499 57.9719 72.0347C57.3648 71.1194 57.0002 70.0648 56.9126 68.97Z" fill="#FF87AF" />
                <path d="M87.8344 71.8015C86.6346 73.0871 85.4004 74.3126 84.2477 75.6282C83.9011 76.1367 83.6136 76.683 83.3907 77.2566C84.0249 77.4451 84.7662 77.9422 85.2804 77.7665C87.8987 76.888 90.4527 75.8339 93.3281 74.724C92.7024 76.1638 92.231 77.4922 91.5668 78.7092C88.8305 83.3078 85.4038 87.4587 81.4066 91.0164C79.8868 92.4819 78.3084 93.8832 76.6715 95.2201C75.8046 95.9395 74.7622 96.4157 73.6509 96.6001C72.5396 96.7844 71.3992 96.6702 70.3465 96.2692C69.2938 95.8681 68.3665 95.1947 67.6595 94.3176C66.9525 93.4406 66.4912 92.3916 66.3227 91.2778C66.254 90.6585 66.3087 90.0317 66.4838 89.4337C66.6589 88.8357 66.9507 88.2784 67.3426 87.7939C73.174 81.4614 79.8384 75.9503 87.1531 71.4115C87.242 71.3771 87.3363 71.3582 87.4316 71.3558L87.8344 71.8015Z" fill="#FF87AF" />
                <path d="M97.6724 54.7335L105.004 22.1659L110.147 23.37L107.494 31.4305C105.017 38.9296 102.51 46.4287 100.093 53.9364C99.6221 55.3248 99.0051 55.5819 97.6724 54.7335Z" fill="#FF6196" />
                <path d="M89.3857 73.8885C90.1614 70.9274 90.9327 68.1892 91.5841 65.421C92.2189 62.7364 93.4263 60.2207 95.1236 58.0461C96.1649 56.6791 97.3348 57.2234 98.5304 57.519C99.636 57.789 99.9145 58.5989 99.9616 59.6616C100.136 62.6005 99.241 65.5031 97.4419 67.8335C95.3002 70.4887 92.5317 72.5695 89.3857 73.8885Z" fill="#FF6196" />
                <path d="M119.944 3.83936C120.008 2.88498 119.983 1.92674 119.871 0.976845C119.783 0.711516 119.607 0.483621 119.374 0.329779C119.184 0.175101 118.961 0.0652523 118.723 0.00838844C118.585 -0.0173228 118.393 0.124089 118.208 0.325493C118.03 0.516698 117.878 0.731542 117.758 0.96399C117.65 1.37492 117.627 1.80359 117.69 2.22384V21.3873C112.023 21.7895 106.357 20.6022 101.329 17.9591C99.685 17.2161 98.3781 15.8856 97.6646 14.2286C96.951 12.5717 96.8824 10.7079 97.4722 9.00304C98.1107 6.59046 98.8178 4.19932 99.5462 1.81246C99.7177 1.24253 99.8162 0.655454 99.5462 0.321208C99.3961 0.158494 99.1888 0.0602123 98.9677 0.0469556C98.6847 0.0500088 98.4105 0.146413 98.1878 0.321208C97.8674 0.512888 97.6121 0.796593 97.4551 1.1354C96.598 3.70652 95.8438 6.30336 95.1882 8.9259C94.9407 9.95936 94.874 11.0279 94.9911 12.0841C95.1569 13.9952 95.8676 15.8186 97.0389 17.3377C98.2102 18.8569 99.7928 20.0081 101.599 20.6545C102.409 20.993 102.884 21.3273 102.657 22.3943C102.344 23.7484 102.04 25.1026 101.732 26.461C99.632 35.6656 97.5436 44.8745 95.4667 54.0877C95.4082 54.4985 95.2275 54.8822 94.9482 55.189C93.5793 56.2771 92.4291 57.6148 91.5586 59.1314C90.4493 61.1327 89.6817 63.3052 89.2875 65.5592C89.2118 66.2782 88.952 66.9655 88.5331 67.5548C88.1143 68.144 87.5505 68.6153 86.8963 68.9231C85.1094 69.8273 83.4682 70.9971 81.4841 72.2141C81.6164 69.8282 81.5906 67.4361 81.407 65.0535C81.256 64.3206 81.288 63.5618 81.5003 62.8442C81.7126 62.1267 82.0985 61.4725 82.624 60.9397C85.2375 58.3506 87.1005 55.1015 88.0148 51.538C88.2878 50.712 88.3627 49.8333 88.2333 48.9729C88.104 48.1126 87.774 47.2948 87.27 46.5856C86.7661 45.8764 86.1023 45.2957 85.3325 44.8905C84.5626 44.4853 83.7081 44.267 82.8382 44.2531C81.4298 44.2374 80.047 44.6304 78.8573 45.3844C74.7683 48.1767 70.7504 51.0715 66.8073 54.0663C64.4633 55.8318 62.2564 57.7858 59.9852 59.637C59.8873 59.5319 59.8025 59.4154 59.7324 59.2899C59.689 58.9744 59.604 58.6661 59.4796 58.3729C57.5812 55.4418 58.8968 53.3121 60.958 51.1223C63.1053 48.8714 64.2919 45.8727 64.2661 42.7619C64.3327 41.1769 63.8363 39.6194 62.8649 38.3653C62.3474 37.7286 61.7096 37.2001 60.988 36.8097C59.9629 36.2487 58.7908 36.0145 57.6289 36.1386C56.467 36.2627 55.3708 36.7391 54.4873 37.5039L53.2917 38.361C50.5621 40.315 47.7981 42.2177 45.1713 44.3089C41.3364 47.3705 37.5841 50.5341 33.9183 53.7963C32.2042 55.309 30.953 57.3744 29.1746 58.78C19.9014 66.1034 10.5297 73.294 1.1922 80.5317C0.871132 80.7232 0.575909 80.9551 0.313735 81.2216C0.286745 81.2606 0.263774 81.3023 0.245172 81.3459C0.0480521 81.8044 -0.119071 82.5629 0.112331 82.8414C0.169054 82.9019 0.23761 82.95 0.313735 82.9828C0.721934 83.1523 1.17623 83.175 1.5993 83.0471C2.15985 82.7563 2.67399 82.3837 3.12483 81.9415L29.2646 61.6811C29.7317 61.3168 30.2245 60.9869 30.7944 60.5755C30.9476 62.2831 31.5807 63.9125 32.6206 65.2757C33.6604 66.6388 35.0646 67.68 36.671 68.2791C38.2774 68.8782 40.0204 69.0107 41.6989 68.6614C43.3774 68.312 44.9229 67.4951 46.1569 66.3048C49.1565 63.4166 52.2547 60.6141 55.3101 57.773L56.4242 56.7274C58.2926 60.3827 58.104 61.3468 55.2329 63.648C37.5893 77.7663 19.9585 91.8875 2.34064 106.012C1.59073 106.611 0.108046 107.156 1.08079 108.433C2.05353 109.71 2.94914 108.394 3.69476 107.798C20.2242 94.5972 36.7423 81.3787 53.2489 68.1432C53.6774 67.8003 54.1273 67.4961 54.7487 67.0419V68.4303C54.6647 70.0345 55.0599 71.6275 55.8841 73.0064C56.7082 74.3853 57.924 75.4879 59.3767 76.1736C60.8007 76.897 62.4173 77.1503 63.9942 76.897C65.5711 76.6436 67.0271 75.8968 68.1528 74.7638C71.551 71.7642 74.9149 68.7045 78.2959 65.6792C78.5102 65.4863 78.7587 65.3406 79.153 65.0407C79.6367 67.9861 79.542 70.9975 78.8744 73.9068C78.7096 74.2936 78.4394 74.6262 78.0945 74.8667C75.3005 77.2807 72.4966 79.6847 69.6826 82.0787L28.4075 117.115C27.9243 117.437 27.4972 117.836 27.1434 118.297C27.0305 118.507 26.9672 118.741 26.9582 118.979C26.9493 119.217 26.9951 119.455 27.092 119.673C27.2856 119.818 27.5094 119.917 27.7468 119.964C27.9842 120.011 28.2291 120.004 28.4633 119.943C28.648 119.889 28.8181 119.794 28.9603 119.664C29.1746 119.493 29.3889 119.274 29.5817 119.099L59.4196 93.8158C60.8551 92.5988 62.3035 91.399 63.8162 90.1306C63.8928 90.3343 63.9544 90.5434 64.0005 90.7562C64.0861 92.4102 64.6556 94.0027 65.6383 95.3358C66.6211 96.669 67.9737 97.6842 69.5284 98.2553C71.0641 98.9225 72.7662 99.108 74.4096 98.7874C76.053 98.4669 77.5606 97.6552 78.733 96.4598C80.7213 94.6472 82.684 92.8045 84.6552 90.9705C85.9407 89.792 87.1834 88.6093 88.5376 87.3366C88.7898 88.2162 88.9944 89.1089 89.1503 90.0106C89.3473 92.1094 89.0578 94.2253 88.3042 96.1941C87.5506 98.1628 86.3532 99.9313 84.8051 101.362C79.8386 106.71 74.7606 111.942 69.7255 117.217C69.3955 117.56 68.9413 117.843 68.7613 118.25C68.5813 118.657 68.4657 119.454 68.6799 119.626L68.7399 119.664C69.1892 119.883 69.6945 119.959 70.1883 119.883C70.3267 119.854 70.45 119.777 70.5354 119.664C70.6554 119.54 70.7711 119.386 70.8868 119.27C74.9663 115.053 79.0672 110.858 83.1168 106.611C84.7513 104.955 86.288 103.205 87.7191 101.371C89.5851 99.3049 90.8224 96.7492 91.2855 94.0042C91.7486 91.2591 91.4181 88.439 90.3331 85.8754C90.2164 85.3037 90.3304 84.7092 90.6502 84.2213C90.9287 83.7413 91.2372 83.2742 91.5543 82.8114C92.569 81.494 93.4141 80.0544 94.0698 78.5262C95.3368 74.7758 97.2817 71.2898 99.8076 68.2417C100.969 66.7695 101.768 65.0448 102.14 63.207C102.512 61.3692 102.447 59.4696 101.95 57.6616C101.775 56.9741 101.775 56.2535 101.95 55.5661C104.119 48.8512 106.351 42.1577 108.562 35.4599L111.519 26.4867L112.432 23.7142C114.377 23.7142 116.211 23.6756 118.037 23.7142C119.554 23.757 120.017 23.0457 120 21.5715C119.91 15.658 119.944 9.74866 119.944 3.83936ZM43.9371 65.1435C42.9791 66.0304 41.7647 66.591 40.4683 66.745C39.1719 66.8989 37.86 66.6383 36.7208 66.0006C35.587 65.5162 34.631 64.6925 33.9842 63.6429C33.3373 62.5932 33.0314 61.369 33.1084 60.1384C33.2457 58.6271 33.8732 57.202 34.8953 56.0803C41.5388 49.7455 48.7368 44.019 56.4028 38.9695C56.8212 38.6737 57.2972 38.4693 57.7998 38.3696C58.1369 38.3074 58.4825 38.3074 58.8196 38.3696C59.2234 38.4482 59.6086 38.6023 59.9552 38.8238C60.656 39.2588 61.2224 39.8796 61.5916 40.6171C61.9607 41.3547 62.1182 42.1802 62.0464 43.0019C61.9576 45.1413 61.2092 47.2009 59.9038 48.8983C55.237 54.9207 49.878 60.3733 43.9371 65.1435ZM66.2202 73.4097C65.4752 74.1758 64.4966 74.6724 63.4385 74.8213C62.3803 74.9703 61.3027 74.7631 60.3752 74.2324C59.3988 73.7249 58.5678 72.977 57.9605 72.0593C57.3533 71.1416 56.9897 70.0844 56.9042 68.9874C56.8047 68.0401 56.9263 67.0828 57.2594 66.1905C57.5925 65.2982 58.1281 64.4954 58.8239 63.8451C65.3288 57.8454 72.3078 52.3811 79.6929 47.5056C79.9157 47.3642 80.1214 47.2228 80.3657 47.0771C81.0107 46.6114 81.7923 46.3734 82.5875 46.4005C83.3826 46.4277 84.1462 46.7185 84.758 47.2271C85.35 47.7285 85.7688 48.4038 85.955 49.157C86.1412 49.9101 86.0852 50.7028 85.795 51.4223C84.8607 54.5342 83.1364 57.351 80.7899 59.5985C76.0633 64.3208 71.1482 68.8674 66.2288 73.3925L66.2202 73.4097ZM91.5501 78.7276C88.8175 83.319 85.3967 87.4638 81.407 91.0176C79.8872 92.4831 78.3088 93.8844 76.6718 95.2214C75.8049 95.9408 74.7625 96.417 73.6512 96.6013C72.5399 96.7856 71.3996 96.6714 70.3469 96.2704C69.2942 95.8694 68.3669 95.1959 67.6599 94.3189C66.9529 93.4419 66.4915 92.3928 66.323 91.279C66.2543 90.6597 66.3091 90.0329 66.4842 89.435C66.6592 88.837 66.9511 88.2796 67.3429 87.7951C73.1743 81.4627 79.8387 75.9515 87.1534 71.4128C87.2424 71.3783 87.3366 71.3594 87.432 71.3571L87.8605 71.7856C86.6606 73.0712 85.4265 74.2967 84.2738 75.6123C83.9272 76.1208 83.6396 76.6671 83.4167 77.2407C84.0509 77.4292 84.7923 77.9263 85.3065 77.7506C87.3763 77.0564 89.4117 76.2508 91.5929 75.3937L93.3541 74.7081C92.6942 76.1651 92.2228 77.4935 91.5586 78.7105L91.5501 78.7276ZM97.4336 67.8646C95.8352 69.8996 93.8317 71.5806 91.5501 72.8012C90.8444 73.1954 90.1202 73.564 89.3775 73.9068C90.1402 70.9885 90.903 68.2846 91.5501 65.5506L91.5758 65.4392C92.2106 62.7546 93.418 60.2389 95.1153 58.0644C96.1566 56.6974 97.3265 57.2416 98.5221 57.5373C99.6277 57.8073 99.9062 58.6172 99.9533 59.6799C100.129 62.6162 99.2372 65.5171 97.4422 67.8475L97.4336 67.8646ZM107.461 31.4404C104.984 38.9395 102.477 46.4386 100.06 53.9463C99.6062 55.3561 98.9892 55.6132 97.6565 54.7648L104.011 26.5124L104.988 22.1758L110.131 23.3799L109.098 26.5124L107.461 31.4404Z" fill="#1F2626" />
            </g>
            <defs>
                <clipPath id="clip0_1_1803">
                    <rect width="120" height="120" fill="white" />
                </clipPath>
            </defs>
        </svg> </g>
    <g id="webDisigne">
            <path fill="#e64a19" d="M26,17h-8c-3.866,0-7-3.134-7-7v0c0-3.866,3.134-7,7-7h8V17z"></path><path fill="#7c4dff" d="M25,31h-7c-3.866,0-7-3.134-7-7v0c0-3.866,3.134-7,7-7h7V31z"></path><path fill="#66bb6a" d="M18,45L18,45c-3.866,0-7-3.134-7-7v0c0-3.866,3.134-7,7-7h7v7C25,41.866,21.866,45,18,45z"></path><path fill="#ff7043" d="M32,17h-7V3h7c3.866,0,7,3.134,7,7v0C39,13.866,35.866,17,32,17z"></path><circle cx="32" cy="24" r="7" fill="#29b6f6"></circle>
    </g>
    <g id="redux">
        <svg width="50" height="50" viewBox="0 0 105 100" fill="none" xmlns="http://www.w3.org/2000/svg">
            <path d="M72.6971 69.5627C76.5688 69.1619 79.5061 65.8242 79.3725 61.8184C79.2393 57.8131 75.9012 54.6086 71.8959 54.6086H71.6291C67.4897 54.7422 64.2856 58.2135 64.4193 62.3525C64.5529 64.3553 65.3537 66.091 66.5553 67.2926C62.016 76.2385 55.0734 82.7807 44.6594 88.2549C37.5832 91.9934 30.2402 93.3287 22.8971 92.3943C16.8889 91.593 12.216 88.923 9.27827 84.5164C5.00614 77.9742 4.60573 70.8975 8.21065 63.8213C10.7475 58.7475 14.7525 55.009 17.2893 53.1398C16.7553 51.4041 15.9541 48.4668 15.5537 46.3307C-3.80574 60.35 -1.80287 79.3094 4.07172 88.2549C8.47745 94.9311 17.4229 99.0701 27.3029 99.0701C29.9729 99.0701 32.643 98.8029 35.3135 98.1357C52.4033 94.7975 65.3541 84.65 72.6971 69.5627ZM96.1955 53.0066C86.0483 41.1234 71.0951 34.5811 54.0053 34.5811H51.8693C50.6676 32.1779 48.1307 30.5754 45.327 30.5754H45.0598C40.9213 30.709 37.7172 34.1803 37.8504 38.3197C37.984 42.325 41.3217 45.5295 45.327 45.5295H45.5938C48.5311 45.3959 51.068 43.5266 52.1361 40.9898H54.5393C64.6865 40.9898 74.2992 43.927 82.9779 49.6684C89.6533 54.0746 94.4598 59.816 97.1299 66.7586C99.3996 72.3664 99.266 77.8406 96.8627 82.5139C93.1246 89.5902 86.8496 93.4623 78.5717 93.4623C73.2311 93.4623 68.1578 91.8598 65.4873 90.6582C64.0188 91.9934 61.3484 94.1295 59.4791 95.4652C65.2205 98.1352 71.0951 99.6041 76.7025 99.6041C89.5197 99.6041 98.9992 92.5275 102.604 85.4512C106.476 77.707 106.209 64.3553 96.1955 53.0066ZM28.3709 71.832C28.5045 75.8377 31.8422 79.0418 35.8475 79.0418H36.1147C40.2537 78.9086 43.4578 75.4369 43.3242 71.2979C43.191 67.2922 39.8529 64.0881 35.8475 64.0881H35.5807C35.3135 64.0881 34.9127 64.0881 34.6463 64.2213C29.1721 55.1422 26.9025 45.2623 27.7037 34.5807C28.2373 26.5697 30.9078 19.6266 35.5807 13.8852C39.4525 8.94508 46.9291 6.5418 52.0029 6.40861C66.1549 6.14139 72.1627 23.7656 72.5635 30.8422C74.2992 31.2426 77.2365 32.1775 79.2393 32.8451C77.6369 11.2156 64.2856 0 51.4688 0C39.4524 0 28.3709 8.67869 23.9647 21.4963C17.8234 38.5865 21.8287 55.009 29.3053 67.9602C28.6381 68.8947 28.2373 70.3635 28.3709 71.8324V71.832Z" fill="#764ABC" />
        </svg>
    </g>
    <g id="radix">
            <path d="M32.08333333333333 12.604166666666666a5.729166666666666 5.729166666666666 0 1 0 11.458333333333332 0 5.729166666666666 5.729166666666666 0 1 0 -11.458333333333332 0" fill="#7572D5"/>
            <path d="M13.75 6.875h11.458333333333332v11.458333333333332H13.75z" fill="#7572D5"/>
            <path d="M25.208333333333332 25.208333333333332v22.916666666666664a11.458333333333332 11.458333333333332 0 0 1 -0.49729166666666663 -22.90520833333333L25.208333333333332 25.208333333333332z" fill="#7572D5"/>
    </g>
    <g id="material-ui">
        <svg xmlns="http://www.w3.org/2000/svg" x="2px" y="5px" width="50" height="50" viewBox="0 0 48 48">
            <polygon fill="#29b6f6" points="1,5 7,9 7,29 1,25"></polygon><polygon fill="#0288d1" points="47,20 41,24 41,37 47,33"></polygon><polygon fill="#0288d1" points="47,6 41,10 41,17 47,13"></polygon><polygon fill="#0288d1" points="35,5 29,9 29,29 35,25"></polygon><polygon fill="#29b6f6" points="1,12 18,23 18,16 1,5"></polygon><polygon fill="#0288d1" points="35,12 18,23 18,16 35,5"></polygon><polygon fill="#0288d1" points="35,26 18,37 18,30 35,19"></polygon><polygon fill="#0288d1" points="47,34 30,45 30,38 47,27"></polygon><polygon fill="#29b6f6" points="30,37.765 18,30 18,37 30,44.765"></polygon>
        </svg> </g>
    <g id="nextjs">
        <svg xmlns="http://www.w3.org/2000/svg" x="0px" y="0px" width="50" height="50" viewBox="0 0 64 64">
            <linearGradient id="wNc8qMg_PMLZF-NebSkXWa_AU6Wc7r56Fxz_gr1" x1="32" x2="32" y1="54" y2="10" gradientUnits="userSpaceOnUse"><stop offset="0" stop-color="#e6abff"></stop><stop offset="1" stop-color="#6dc7ff"></stop></linearGradient><path fill="url(#wNc8qMg_PMLZF-NebSkXWa_AU6Wc7r56Fxz_gr1)" d="M54,32c0,5.75-2.2,10.98-5.8,14.9l-0.171,0.187L43,40.646V21h-7v10.686L27.663,21H21v22h7	V32.59l14.66,18.66C39.51,53,35.87,54,32,54c-12.15,0-22-9.85-22-22s9.85-22,22-22S54,19.85,54,32z"></path><linearGradient id="wNc8qMg_PMLZF-NebSkXWb_AU6Wc7r56Fxz_gr2" x1="32" x2="32" y1="58" y2="6" gradientUnits="userSpaceOnUse"><stop offset="0" stop-color="#c822ff"></stop><stop offset="1" stop-color="#1a6dff"></stop></linearGradient><path fill="url(#wNc8qMg_PMLZF-NebSkXWb_AU6Wc7r56Fxz_gr2)" d="M32,58C17.663,58,6,46.336,6,32S17.663,6,32,6s26,11.664,26,26S46.337,58,32,58z M32,8	C18.767,8,8,18.767,8,32s10.767,24,24,24s24-10.767,24-24S45.233,8,32,8z M41,41.336V23h-3v14.496L26.683,23H23v18h3V26.81	L44.37,50.2c0.771-0.523,1.509-1.097,2.212-1.714L41,41.336z"></path>
        </svg>    </g>
    <g id="storybook">
            <path fill="#ff4081" d="M8.447,41.703L7.145,7.032C7.104,5.887,7.984,4.918,9.127,4.848l23.108-1.445L34,4l2.295-0.851	l2.316-0.145c1.163-0.074,2.166,0.809,2.241,1.972c0.003,0.045,0.004,0.091,0.004,0.137v37.777	c-0.001,1.167-0.948,2.112-2.115,2.111c-0.031,0-0.062-0.001-0.092-0.002l-28.186-1.266c-1.098-0.049-1.974-0.932-2.016-2.031	V41.703z"></path><path fill="#fff" fill-rule="evenodd" d="M36.293,3.149l-4.057,0.252l-0.197,4.761	c-0.007,0.174,0.128,0.32,0.302,0.328c0.073,0.003,0.144-0.019,0.202-0.063l1.848-1.403l1.562,1.231	c0.136,0.108,0.335,0.085,0.442-0.051c0.046-0.059,0.07-0.132,0.068-0.207l-0.168-4.847L36.293,3.149z M33.135,19.088	c-0.741,0.577-6.277,0.97-6.277,0.149c0.118-3.135-1.285-3.272-2.066-3.272c-0.739,0-1.987,0.223-1.987,1.903	c0,1.711,1.823,2.677,3.963,3.811c3.039,1.611,6.72,3.562,6.72,8.467c0,4.704-3.822,7.3-8.694,7.3c-5.029,0-9.425-2.035-8.929-9.089	c0.195-0.827,6.59-0.63,6.59,0c-0.08,2.911,0.584,3.767,2.26,3.767c1.287,0,1.871-0.71,1.871-1.903c0-1.808-1.898-2.875-4.084-4.101	c-2.959-1.661-6.441-3.616-6.441-8.104c0-4.477,3.079-7.463,8.576-7.463S33.135,13.494,33.135,19.088z" clip-rule="evenodd"></path>
</g>


    <g id="quote">
        <path d="M9.54167 12.8333C9.07708 12.8333 8.63125 12.9042 8.1875 12.9688C8.33125 12.4854 8.47917 11.9938 8.71667 11.5521C8.95417 10.9104 9.325 10.3542 9.69375 9.79375C10.0021 9.1875 10.5458 8.77709 10.9458 8.25834C11.3646 7.75417 11.9354 7.41875 12.3875 7C12.8312 6.5625 13.4125 6.34375 13.875 6.03542C14.3583 5.75834 14.7792 5.45209 15.2292 5.30625L16.3521 4.84375L17.3396 4.43334L16.3292 0.395836L15.0854 0.695835C14.6875 0.795835 14.2021 0.912502 13.65 1.05209C13.0854 1.15625 12.4833 1.44167 11.8125 1.70209C11.15 1.99792 10.3833 2.19792 9.67083 2.67292C8.95417 3.12709 8.12708 3.50625 7.39791 4.11459C6.69166 4.74167 5.83958 5.28542 5.21041 6.08334C4.52291 6.82917 3.84375 7.6125 3.31666 8.50417C2.70625 9.35417 2.29166 10.2875 1.85416 11.2104C1.45833 12.1333 1.13958 13.0771 0.879164 13.9938C0.385414 15.8313 0.164581 17.5771 0.079164 19.0708C0.0083307 20.5667 0.0499974 21.8104 0.137497 22.7104C0.168747 23.1354 0.227081 23.5479 0.268748 23.8333L0.320831 24.1833L0.374997 24.1708C0.745541 25.9017 1.59855 27.4924 2.83534 28.7587C4.07213 30.0251 5.64217 30.9154 7.36383 31.3267C9.08549 31.738 10.8884 31.6535 12.5641 31.083C14.2397 30.5124 15.7196 29.4792 16.8325 28.1027C17.9454 26.7262 18.6459 25.0628 18.853 23.3048C19.06 21.5468 18.7651 19.7662 18.0024 18.1688C17.2396 16.5714 16.0403 15.2226 14.543 14.2784C13.0458 13.3342 11.3118 12.8332 9.54167 12.8333ZM32.4583 12.8333C31.9937 12.8333 31.5479 12.9042 31.1042 12.9688C31.2479 12.4854 31.3958 11.9938 31.6333 11.5521C31.8708 10.9104 32.2417 10.3542 32.6104 9.79375C32.9188 9.1875 33.4625 8.77709 33.8625 8.25834C34.2812 7.75417 34.8521 7.41875 35.3042 7C35.7479 6.5625 36.3292 6.34375 36.7917 6.03542C37.275 5.75834 37.6958 5.45209 38.1458 5.30625L39.2687 4.84375L40.2562 4.43334L39.2458 0.395836L38.0021 0.695835C37.6042 0.795835 37.1187 0.912502 36.5667 1.05209C36.0021 1.15625 35.4 1.44167 34.7292 1.70209C34.0688 2 33.3 2.19792 32.5875 2.675C31.8708 3.12917 31.0438 3.50834 30.3146 4.11667C29.6083 4.74375 28.7562 5.2875 28.1271 6.08334C27.4396 6.82917 26.7604 7.6125 26.2333 8.50417C25.6229 9.35417 25.2083 10.2875 24.7708 11.2104C24.375 12.1333 24.0562 13.0771 23.7958 13.9938C23.3021 15.8313 23.0812 17.5771 22.9958 19.0708C22.925 20.5667 22.9667 21.8104 23.0542 22.7104C23.0854 23.1354 23.1437 23.5479 23.1854 23.8333L23.2375 24.1833L23.2917 24.1708C23.6622 25.9017 24.5152 27.4924 25.752 28.7587C26.9888 30.0251 28.5588 30.9154 30.2805 31.3267C32.0022 31.738 33.8051 31.6535 35.4807 31.083C37.1564 30.5124 38.6363 29.4792 39.7492 28.1027C40.8621 26.7262 41.5626 25.0628 41.7696 23.3048C41.9766 21.5468 41.6817 19.7662 40.919 18.1688C40.1563 16.5714 38.957 15.2226 37.4597 14.2784C35.9624 13.3342 34.2284 12.8332 32.4583 12.8333Z" fill="#7572D5"/>
    </g>
    <g id="instagram">
        <path d="M15.6516 2.09998H5.34844C3.55687 2.09998 2.1 3.55628 2.1 5.34715V8.77799V15.6528C2.1 17.4437 3.55687 18.9 5.34844 18.9H15.6516C17.4431 18.9 18.9 17.4437 18.9 15.6528V8.77143V5.34058C18.8934 3.55628 17.4366 2.09998 15.6516 2.09998ZM16.5834 4.03516H16.9575V4.40251V6.88217L14.1159 6.88873L14.1094 4.04172L16.5834 4.03516ZM8.09812 8.77143C8.63625 8.03016 9.50906 7.53816 10.4934 7.53816C11.4778 7.53816 12.3506 8.0236 12.8887 8.77143C13.2431 9.25687 13.4466 9.85382 13.4466 10.4967C13.4466 12.1236 12.1209 13.4552 10.4869 13.4552C8.85281 13.4552 7.54031 12.1236 7.54031 10.4967C7.54031 9.85382 7.75031 9.25687 8.09812 8.77143ZM17.2594 15.6462C17.2594 16.5318 16.5375 17.2534 15.6516 17.2534H5.34844C4.4625 17.2534 3.74062 16.5318 3.74062 15.6462V8.77143H6.2475C6.03094 9.30279 5.90625 9.88662 5.90625 10.4967C5.90625 13.0288 7.96687 15.0887 10.5 15.0887C13.0331 15.0887 15.0937 13.0288 15.0937 10.4967C15.0937 9.88662 14.9691 9.30279 14.7525 8.77143H17.2594V15.6462Z" fill="currentColor"/>
    </g>
    <g id="telegram">
        <path d="M18.9057 4.76449L16.3705 16.7208C16.1791 17.5644 15.6804 17.7745 14.9717 17.3772L11.1085 14.5305L9.24472 16.3235C9.0383 16.5299 8.86608 16.7022 8.46824 16.7022L8.74607 12.7681L15.9054 6.29885C16.2169 6.02162 15.8376 5.86741 15.4218 6.14524L6.57084 11.7186L2.76043 10.5257C1.93174 10.2671 1.91674 9.69701 2.93325 9.29917L17.837 3.55716C18.5271 3.29854 19.1308 3.71018 18.9057 4.76449Z" fill="currentColor"/>
    </g>
    <g id="vk">
        <path d="M18.1696 13.9941C17.8038 13.5391 17.3881 13.1314 16.9861 12.737C16.8432 12.5968 16.6954 12.4518 16.5529 12.3076C16.1439 11.8932 16.129 11.7375 16.4529 11.2668C16.6769 10.9424 16.9145 10.6175 17.1442 10.3033C17.3526 10.0183 17.568 9.72351 17.7746 9.42777L17.817 9.36697C18.2117 8.80103 18.6199 8.21583 18.8372 7.50988C18.8936 7.32363 18.9528 7.04955 18.8174 6.82036C18.682 6.59137 18.4195 6.52151 18.2337 6.48888C18.1418 6.47273 18.0506 6.47053 17.9659 6.47053L15.3809 6.46861L15.3595 6.46842C14.9687 6.46842 14.7053 6.65927 14.5544 7.05194C14.4103 7.42713 14.252 7.82665 14.0714 8.20653C13.7119 8.96298 13.2554 9.83425 12.5948 10.5609L12.5669 10.5918C12.4889 10.6787 12.4005 10.777 12.3359 10.777C12.326 10.777 12.3152 10.7751 12.303 10.7711C12.1662 10.7159 12.0744 10.3726 12.0785 10.213C12.0786 10.2108 12.0786 10.2086 12.0786 10.2064L12.0768 7.1105C12.0768 7.09976 12.0761 7.08913 12.0747 7.07849C12.009 6.57522 11.8633 6.26195 11.3129 6.15026C11.2983 6.14724 11.2834 6.14575 11.2685 6.14575H8.5806C8.14268 6.14575 7.90138 6.33018 7.67456 6.60623C7.61334 6.68002 7.48589 6.83364 7.54906 7.01998C7.61315 7.20911 7.8212 7.24955 7.88894 7.26268C8.22522 7.32899 8.41477 7.54213 8.46846 7.91453C8.56219 8.56121 8.57371 9.25144 8.50471 10.0868C8.48547 10.3189 8.44742 10.4982 8.38471 10.6514C8.37015 10.6872 8.31849 10.8038 8.26582 10.8039C8.24908 10.8039 8.20067 10.7971 8.11248 10.7341C7.90397 10.5861 7.75142 10.3749 7.57357 10.114C6.96853 9.22796 6.46074 8.25191 6.02097 7.12938C5.85787 6.71615 5.55327 6.48481 5.16289 6.478C4.73395 6.47125 4.34504 6.46799 3.97413 6.46799C3.56886 6.46799 3.19314 6.47187 2.82625 6.47978C2.51217 6.48553 2.29492 6.58308 2.18061 6.76996C2.06611 6.95697 2.07356 7.20264 2.20276 7.50001C3.23702 9.88254 4.17478 11.6149 5.24345 13.1171C5.99225 14.1683 6.74333 14.8959 7.60686 15.4068C8.51664 15.9461 9.5362 16.2083 10.7237 16.2083C10.8583 16.2083 10.9975 16.2048 11.1379 16.198C11.8279 16.1632 12.0839 15.9044 12.1163 15.2082C12.1317 14.8525 12.1692 14.4793 12.338 14.1611C12.4445 13.9606 12.5439 13.9606 12.5765 13.9606C12.6394 13.9606 12.7174 13.9906 12.8011 14.0468C12.9513 14.1484 13.0801 14.2845 13.1857 14.4034C13.285 14.5163 13.3833 14.6304 13.4817 14.7446C13.6939 14.9909 13.9134 15.2456 14.1427 15.4871C14.6445 16.0162 15.1973 16.2488 15.8323 16.1983H18.2023C18.2073 16.1983 18.2124 16.1981 18.2175 16.1978C18.4536 16.1817 18.6582 16.0459 18.7786 15.8254C18.9279 15.5522 18.9249 15.2037 18.7706 14.893C18.5956 14.5415 18.3685 14.2413 18.1696 13.9941Z" fill="currentColor"/>
    </g>
    <g id="linkedin">
        <path d="M5.80637 7.88635H2.53296V18.3626H5.80637V7.88635Z" fill="currentColor"/>
        <path d="M4.10079 2.94019C2.89376 2.94019 2.10001 3.72082 2.10001 4.75729C2.10001 5.77408 2.86752 6.57439 4.05487 6.57439H4.08111C5.31437 6.57439 6.08189 5.76752 6.07533 4.75729C6.04909 3.72082 5.30781 2.94019 4.10079 2.94019Z" fill="currentColor"/>
        <path d="M14.7476 7.78796C12.8714 7.78796 11.6972 8.81131 11.4807 9.53291V7.88636H7.8006C7.84652 8.75883 7.8006 18.3626 7.8006 18.3626H11.4807V12.7014C11.4807 12.3799 11.4676 12.065 11.5594 11.842C11.8087 11.2123 12.3532 10.5563 13.3306 10.5563C14.6098 10.5563 15.1871 11.5271 15.1871 12.9441V18.3626H18.9V12.5374C18.9 9.29675 17.0764 7.78796 14.7476 7.78796Z" fill="currentColor"/>
    </g>
    <g id="arrowGoTop">
        <path d="M6.80722 4.2806V15H9.19278V4.2806L14.3134 9.08118L16 7.5L8 0L0 7.5L1.6866 9.08118L6.80722 4.2806Z" fill="white"/>
    </g>>
</svg>

